<?xml version="1.0" standalone="no"?>
<!DOCTYPE svg PUBLIC "-//W3C//DTD SVG 20010904//EN"
 "http://www.w3.org/TR/2001/REC-SVG-20010904/DTD/svg10.dtd">
<svg version="1.0" xmlns="http://www.w3.org/2000/svg"
 width="564.000000pt" height="564.000000pt" viewBox="0 0 564.000000 564.000000"
 preserveAspectRatio="xMidYMid meet">

<g transform="translate(0.000000,564.000000) scale(0.100000,-0.100000)"
fill="#000000" stroke="none">
<path d="M3022 4845 c-109 -25 -287 -117 -277 -143 3 -9 0 -12 -9 -9 -8 3 -35
-17 -66 -49 -29 -30 -50 -54 -47 -54 3 0 -5 -12 -18 -26 -14 -15 -25 -33 -25
-40 0 -7 -6 -17 -13 -21 -24 -16 -42 -65 -72 -203 -46 -210 -106 -477 -130
-577 -51 -211 -21 -381 95 -538 41 -55 71 -83 145 -134 28 -19 54 -41 58 -48
5 -7 13 -11 18 -7 6 3 18 -1 27 -9 9 -8 54 -24 100 -35 74 -17 82 -18 76 -3
-28 63 -67 199 -76 268 -25 189 43 376 184 509 39 36 103 78 431 276 57 35 95
64 91 70 -4 7 -2 8 5 4 6 -4 56 20 114 56 56 35 117 70 135 77 26 11 32 19 32
45 0 92 -69 295 -118 345 -9 9 -32 35 -51 56 -65 75 -169 140 -286 180 -69 23
-242 29 -323 10z"/>
<path d="M4355 3044 c-38 -25 -144 -88 -235 -141 -91 -53 -217 -126 -280 -163
-163 -95 -187 -106 -261 -119 -212 -36 -429 31 -574 178 -22 22 -43 40 -47 41
-8 0 -34 -118 -43 -195 -12 -110 37 -277 114 -389 44 -64 107 -125 174 -170
63 -41 126 -58 657 -180 325 -74 370 -80 467 -66 309 47 537 315 535 630 0
188 -81 370 -221 503 -49 46 -168 117 -196 117 -11 -1 -51 -21 -90 -46z"/>
<path d="M2515 2710 c-83 -13 -133 -29 -212 -72 -82 -44 -104 -60 -170 -128
-58 -59 -92 -110 -95 -140 -3 -24 -1 -25 62 -24 145 1 229 31 354 127 49 37
106 100 106 116 0 6 3 11 8 11 4 0 18 18 32 40 15 24 33 40 45 41 16 1 17 2 3
6 -10 2 -15 10 -11 19 6 16 -34 17 -122 4z"/>
<path d="M2021 2314 c0 -11 3 -14 6 -6 3 7 2 16 -1 19 -3 4 -6 -2 -5 -13z"/>
<path d="M1981 2195 c-1 -11 -4 -31 -7 -45 -5 -22 -4 -23 6 -7 6 10 9 30 7 45
-3 18 -5 20 -6 7z"/>
<path d="M1902 1850 c0 -14 2 -19 5 -12 2 6 2 18 0 25 -3 6 -5 1 -5 -13z"/>
<path d="M2239 1793 c-13 -15 -12 -15 11 -3 34 17 36 20 18 20 -9 0 -22 -7
-29 -17z"/>
<path d="M1882 1770 c0 -14 2 -19 5 -12 2 6 2 18 0 25 -3 6 -5 1 -5 -13z"/>
<path d="M1886 1723 c-6 -14 -5 -15 5 -6 7 7 10 15 7 18 -3 3 -9 -2 -12 -12z"/>
<path d="M2070 1690 c-9 -6 -10 -10 -3 -10 6 0 15 5 18 10 8 12 4 12 -15 0z"/>
<path d="M1861 1674 c0 -11 3 -14 6 -6 3 7 2 16 -1 19 -3 4 -6 -2 -5 -13z"/>
</g>
</svg>
